<svg width="27" height="23" viewBox="0 0 27 23" fill="none" xmlns="http://www.w3.org/2000/svg">
<path d="M25.7141 13.0977L25.007 12.3905L24.9862 12.4113L24.9667 12.4333L25.7141 13.0977ZM6.43672 13.625V12.625H4.00623L5.73297 14.3354L6.43672 13.625ZM12.6477 19.7773L13.391 19.1084L13.3718 19.0871L13.3514 19.0669L12.6477 19.7773ZM12.6477 22.4727L13.3166 23.216L13.3557 23.1807L13.391 23.1416L12.6477 22.4727ZM9.95234 22.4727L9.24524 23.1798L9.26383 23.1984L9.28338 23.216L9.95234 22.4727ZM0.577344 13.0977L-0.16595 13.7666L-0.148358 13.7862L-0.129763 13.8048L0.577344 13.0977ZM0.577344 10.4023L-0.129763 9.69524L-0.148358 9.71383L-0.16595 9.73338L0.577344 10.4023ZM9.95234 1.02734L9.28338 0.28405L9.26383 0.301642L9.24524 0.320237L9.95234 1.02734ZM12.6477 1.02734L13.391 0.358379L13.3557 0.319258L13.3166 0.28405L12.6477 1.02734ZM12.6477 3.72266L13.3514 4.43311L13.3718 4.41293L13.391 4.39162L12.6477 3.72266ZM6.43672 9.875L5.73297 9.16455L4.00623 10.875H6.43672V9.875ZM25.7141 10.4023L24.9667 11.0667L24.9862 11.0887L25.007 11.1095L25.7141 10.4023ZM25.2414 11.75C25.2414 12.0608 25.1513 12.2462 25.007 12.3905L26.4212 13.8048C26.9799 13.246 27.2414 12.533 27.2414 11.75H25.2414ZM24.9667 12.4333C24.8755 12.5359 24.7374 12.625 24.425 12.625V14.625C25.2063 14.625 25.9277 14.3626 26.4615 13.762L24.9667 12.4333ZM24.425 12.625H6.43672V14.625H24.425V12.625ZM5.73297 14.3354L11.9439 20.4878L13.3514 19.0669L7.14047 12.9145L5.73297 14.3354ZM11.9044 20.4463C12.097 20.6604 12.175 20.8735 12.175 21.125H14.175C14.175 20.3608 13.9014 19.6756 13.391 19.1084L11.9044 20.4463ZM12.175 21.125C12.175 21.3765 12.097 21.5896 11.9044 21.8037L13.391 23.1416C13.9014 22.5744 14.175 21.8892 14.175 21.125H12.175ZM11.9787 21.7294C11.7646 21.922 11.5515 22 11.3 22V24C12.0642 24 12.7494 23.7264 13.3166 23.216L11.9787 21.7294ZM11.3 22C11.0485 22 10.8354 21.922 10.6213 21.7294L9.28338 23.216C9.85058 23.7264 10.5358 24 11.3 24V22ZM10.6595 21.7655L1.28445 12.3905L-0.129763 13.8048L9.24524 23.1798L10.6595 21.7655ZM1.32064 12.4287C1.128 12.2146 1.05 12.0015 1.05 11.75H-0.95C-0.95 12.5142 -0.676435 13.1994 -0.16595 13.7666L1.32064 12.4287ZM1.05 11.75C1.05 11.4985 1.128 11.2854 1.32064 11.0713L-0.16595 9.73338C-0.676435 10.3006 -0.95 10.9858 -0.95 11.75H1.05ZM1.28445 11.1095L10.6595 1.73445L9.24524 0.320237L-0.129763 9.69524L1.28445 11.1095ZM10.6213 1.77064C10.8354 1.578 11.0485 1.5 11.3 1.5V-0.5C10.5358 -0.5 9.85058 -0.226435 9.28338 0.28405L10.6213 1.77064ZM11.3 1.5C11.5515 1.5 11.7646 1.578 11.9787 1.77064L13.3166 0.28405C12.7494 -0.226435 12.0642 -0.5 11.3 -0.5V1.5ZM11.9044 1.69631C12.097 1.91035 12.175 2.12355 12.175 2.375H14.175C14.175 1.61083 13.9014 0.925584 13.391 0.358379L11.9044 1.69631ZM12.175 2.375C12.175 2.62645 12.097 2.83965 11.9044 3.05369L13.391 4.39162C13.9014 3.82442 14.175 3.13917 14.175 2.375H12.175ZM11.9439 3.01221L5.73297 9.16455L7.14047 10.5855L13.3514 4.43311L11.9439 3.01221ZM6.43672 10.875H24.425V8.875H6.43672V10.875ZM24.425 10.875C24.7374 10.875 24.8755 10.9641 24.9667 11.0667L26.4615 9.73798C25.9277 9.13744 25.2063 8.875 24.425 8.875V10.875ZM25.007 11.1095C25.1513 11.2538 25.2414 11.4392 25.2414 11.75H27.2414C27.2414 10.967 26.9799 10.254 26.4212 9.69524L25.007 11.1095Z" fill="#22252F"/>
</svg>
