<svg width="27" height="23" viewBox="0 0 27 23" fill="none" xmlns="http://www.w3.org/2000/svg">
<path d="M1.28594 13.0977L1.99304 12.3905L2.01382 12.4113L2.03335 12.4333L1.28594 13.0977ZM20.5633 13.625V12.625H22.9938L21.267 14.3354L20.5633 13.625ZM14.3523 19.7773L13.609 19.1084L13.6282 19.0871L13.6486 19.0669L14.3523 19.7773ZM14.3523 22.4727L13.6834 23.216L13.6443 23.1807L13.609 23.1416L14.3523 22.4727ZM17.0477 22.4727L17.7548 23.1798L17.7362 23.1984L17.7166 23.216L17.0477 22.4727ZM26.4227 13.0977L27.166 13.7666L27.1484 13.7862L27.1298 13.8048L26.4227 13.0977ZM26.4227 10.4023L27.1298 9.69524L27.1484 9.71383L27.166 9.73338L26.4227 10.4023ZM17.0477 1.02734L17.7166 0.28405L17.7362 0.301642L17.7548 0.320237L17.0477 1.02734ZM14.3523 1.02734L13.609 0.358379L13.6443 0.319258L13.6834 0.28405L14.3523 1.02734ZM14.3523 3.72266L13.6486 4.43311L13.6282 4.41293L13.609 4.39162L14.3523 3.72266ZM20.5633 9.875L21.267 9.16455L22.9938 10.875H20.5633V9.875ZM1.28594 10.4023L2.03335 11.0667L2.01382 11.0887L1.99304 11.1095L1.28594 10.4023ZM1.75859 11.75C1.75859 12.0608 1.84865 12.2462 1.99304 12.3905L0.578831 13.8048C0.0200958 13.246 -0.241405 12.533 -0.241405 11.75H1.75859ZM2.03335 12.4333C2.12454 12.5359 2.26258 12.625 2.575 12.625V14.625C1.79367 14.625 1.07234 14.3626 0.538528 13.762L2.03335 12.4333ZM2.575 12.625H20.5633V14.625H2.575V12.625ZM21.267 14.3354L15.0561 20.4878L13.6486 19.0669L19.8595 12.9145L21.267 14.3354ZM15.0956 20.4463C14.903 20.6604 14.825 20.8735 14.825 21.125H12.825C12.825 20.3608 13.0986 19.6756 13.609 19.1084L15.0956 20.4463ZM14.825 21.125C14.825 21.3765 14.903 21.5896 15.0956 21.8037L13.609 23.1416C13.0986 22.5744 12.825 21.8892 12.825 21.125H14.825ZM15.0213 21.7294C15.2354 21.922 15.4485 22 15.7 22V24C14.9358 24 14.2506 23.7264 13.6834 23.216L15.0213 21.7294ZM15.7 22C15.9515 22 16.1646 21.922 16.3787 21.7294L17.7166 23.216C17.1494 23.7264 16.4642 24 15.7 24V22ZM16.3405 21.7655L25.7155 12.3905L27.1298 13.8048L17.7548 23.1798L16.3405 21.7655ZM25.6794 12.4287C25.872 12.2146 25.95 12.0015 25.95 11.75H27.95C27.95 12.5142 27.6764 13.1994 27.166 13.7666L25.6794 12.4287ZM25.95 11.75C25.95 11.4985 25.872 11.2854 25.6794 11.0713L27.166 9.73338C27.6764 10.3006 27.95 10.9858 27.95 11.75H25.95ZM25.7155 11.1095L16.3405 1.73445L17.7548 0.320237L27.1298 9.69524L25.7155 11.1095ZM16.3787 1.77064C16.1646 1.578 15.9515 1.5 15.7 1.5V-0.5C16.4642 -0.5 17.1494 -0.226435 17.7166 0.28405L16.3787 1.77064ZM15.7 1.5C15.4485 1.5 15.2354 1.578 15.0213 1.77064L13.6834 0.28405C14.2506 -0.226435 14.9358 -0.5 15.7 -0.5V1.5ZM15.0956 1.69631C14.903 1.91035 14.825 2.12355 14.825 2.375H12.825C12.825 1.61083 13.0986 0.925584 13.609 0.358379L15.0956 1.69631ZM14.825 2.375C14.825 2.62645 14.903 2.83965 15.0956 3.05369L13.609 4.39162C13.0986 3.82442 12.825 3.13917 12.825 2.375H14.825ZM15.0561 3.01221L21.267 9.16455L19.8595 10.5855L13.6486 4.43311L15.0561 3.01221ZM20.5633 10.875H2.575V8.875H20.5633V10.875ZM2.575 10.875C2.26258 10.875 2.12454 10.9641 2.03335 11.0667L0.538528 9.73798C1.07234 9.13744 1.79367 8.875 2.575 8.875V10.875ZM1.99304 11.1095C1.84865 11.2538 1.75859 11.4392 1.75859 11.75H-0.241405C-0.241405 10.967 0.0200958 10.254 0.578831 9.69524L1.99304 11.1095Z" fill="#22252F"/>
</svg>
